<!DOCTYPE svg PUBLIC "-//W3C//DTD SVG 20010904//EN" "http://www.w3.org/TR/2001/REC-SVG-20010904/DTD/svg10.dtd">
<svg version="1.0" xmlns="http://www.w3.org/2000/svg" width="1000px" height="1000px" viewBox="0 0 10000 10000" preserveAspectRatio="xMidYMid meet">
<g id="layer101" fill="#ffffff" stroke="none">
 <path d="M0 5000 l0 -5000 5000 0 5000 0 0 5000 0 5000 -5000 0 -5000 0 0 -5000z"/>
 </g>
<g id="layer102" fill="#ec5453" stroke="none">
 <path d="M0 5000 l0 -5000 5000 0 5000 0 0 5000 0 5000 -5000 0 -5000 0 0 -5000z m6711 3053 c942 -944 1058 -1065 1195 -1248 96 -128 234 -339 234 -358 0 -4 -138 -7 -307 -7 l-308 1 -42 57 c-73 101 -227 274 -333 375 -450 428 -1003 708 -1609 817 -63 11 -127 20 -143 20 l-28 0 0 -273 c0 -311 -7 -358 -68 -447 -45 -66 -103 -111 -179 -140 -84 -32 -205 -25 -286 15 -71 35 -140 107 -175 183 l-27 57 -3 306 -3 306 -91 -14 c-533 -79 -1052 -305 -1480 -645 -180 -143 -398 -367 -542 -555 l-47 -63 -310 0 -310 0 12 23 c6 12 54 86 106 165 188 286 228 329 1302 1405 l1006 1007 725 0 725 0 986 -987z m-2466 -890 c8 -98 29 -190 57 -254 l21 -51 -57 -171 c-77 -235 -156 -531 -144 -542 2 -2 78 2 168 10 407 36 1169 40 1190 6 13 -22 105 -509 97 -517 -1 -1 -65 2 -142 6 -193 12 -685 12 -890 0 -181 -11 -479 -38 -506 -46 -19 -5 -22 -24 -44 -264 -28 -312 -38 -688 -26 -998 6 -157 9 -287 6 -290 -6 -7 -280 40 -420 71 l-100 22 -6 100 c-18 273 -6 799 24 1133 7 72 9 132 5 132 -17 0 -199 -46 -343 -87 -260 -74 -512 -172 -713 -279 -57 -31 -106 -54 -108 -52 -5 6 41 207 72 313 25 86 115 326 132 352 18 28 390 150 657 217 120 30 375 86 390 86 3 0 5 8 5 17 0 9 20 108 45 220 52 231 133 512 198 687 l44 119 84 35 c92 39 267 101 285 102 7 0 14 -30 19 -77z m1657 34 c68 -24 150 -57 182 -73 l60 -29 33 -90 c191 -518 313 -1135 364 -1850 26 -349 9 -1143 -28 -1378 -7 -44 -33 -46 206 14 413 105 779 257 1044 432 228 151 359 312 343 423 -9 71 -43 123 -140 220 -183 183 -488 349 -886 484 -85 29 -159 57 -164 61 -5 5 -15 66 -23 136 -7 70 -22 193 -33 272 -12 79 -19 145 -17 147 5 6 202 -50 362 -103 257 -84 534 -204 712 -307 l61 -36 -18 57 c-29 98 -90 253 -141 362 -27 57 -49 108 -49 112 0 5 128 9 284 9 l285 0 49 -127 c109 -280 184 -587 224 -908 20 -170 18 -665 -5 -835 -93 -694 -350 -1305 -773 -1835 -102 -128 -340 -373 -469 -485 -556 -477 -1220 -766 -1975 -856 -197 -24 -579 -24 -785 0 -1325 152 -2434 979 -2959 2208 -358 840 -373 1850 -39 2710 l48 123 289 3 c229 2 287 0 283 -10 -3 -7 -35 -79 -71 -159 -160 -359 -249 -739 -263 -1125 -6 -170 -6 -171 20 -228 69 -151 333 -350 659 -498 505 -228 1125 -369 1888 -430 204 -16 870 -16 1080 0 256 20 423 40 430 52 7 11 19 116 42 360 20 214 17 1047 -5 1280 -54 578 -154 1063 -300 1465 l-33 91 24 59 c32 81 52 176 52 258 0 52 3 67 15 67 8 0 69 -20 137 -43z"/>
 <path d="M2020 3727 c0 -12 73 -217 104 -290 284 -685 804 -1245 1465 -1580 194 -99 511 -224 511 -202 0 3 -11 23 -24 44 -48 76 -165 319 -219 456 -77 197 -197 573 -197 621 0 7 55 3 163 -12 89 -12 213 -28 276 -36 l113 -13 58 -165 c139 -402 297 -694 477 -881 100 -104 176 -149 250 -149 225 0 532 443 738 1065 61 182 150 513 141 522 -2 3 -94 -3 -203 -12 -268 -23 -833 -31 -1103 -16 -859 47 -1594 205 -2200 473 -74 33 -173 81 -220 107 -109 62 -130 72 -130 68z"/>
 <path d="M7925 3704 c-302 -185 -881 -390 -1372 -485 l-121 -24 -22 -110 c-93 -468 -270 -987 -446 -1309 -35 -65 -63 -120 -61 -122 8 -8 243 78 363 132 737 332 1315 931 1616 1674 44 108 98 270 90 269 -4 0 -25 -12 -47 -25z"/>
 </g>

</svg>